<svg t="1747277078027" class="icon" viewBox="0 0 1232 1024" version="1.1" xmlns="http://www.w3.org/2000/svg" p-id="7986" width="48" height="48" fill="url(#paint0_linear)"><path d="M832.114812 299.534719a48.697902 48.697902 0 1 0-3.140386 37.144201 48.770934 48.770934 0 0 0 3.140386-37.144201z m0 0" fill="" p-id="7987"></path><path d="M457.371748 904.256328h-5.59427a451.938149 451.938149 0 0 1-226.195474-64.268377c-74.492892-44.578883-135.839979-109.197815-182.36152-192.060202A337.847173 337.847173 0 0 1 0.043819 478.040137c1.31458-95.029559 24.363557-181.119972 68.504248-255.83196A451.879723 451.879723 0 0 1 458.189709 0.000263h1.650529a451.762871 451.762871 0 0 1 229.029126 63.567267c29.870189 17.776049 40.269981 42.022755 43.731709 59.243759 11.407637 56.702236-32.280253 115.697685-82.862387 184.041262-22.17259 29.957828-45.104716 60.938107-60.339242 88.719573-17.615378 32.134189-18.053571 47.646238-16.738991 54.043862 0.073032 0.423587 2.424671 10.458218 32.499349 26.963506 25.809596 14.153649 60.704403 26.934293 94.445302 39.305955 73.631111 26.963505 137.212985 50.246186 154.828363 99.791262 5.477419 15.395198 8.51556 39.612691-8.077367 67.525615a451.923542 451.923542 0 0 1-388.969746 221.054004z m0.365161-816.369059a364.912924 364.912924 0 0 0-178.300927 46.375476c-119.772885 67.01439-189.664745 192.805131-191.768073 345.004333a250.018593 250.018593 0 0 0 31.973518 125.776136c74.492892 132.743412 195.989337 209.865464 333.231535 211.559812a366.03762 366.03762 0 0 0 315.630763-174.035844c-4.045986-3.301058-11.84583-8.588592-26.40846-15.541262-20.259145-9.669469-45.70358-18.988384-72.637873-28.847737-82.876994-30.352202-168.587638-61.741461-182.697468-131.078277-13.949159-68.57728 40.182342-141.682559 92.531857-212.406986 20.682732-27.942138 40.211555-54.321385 53.342753-77.414182 13.379508-23.604022 14.168256-33.872356 14.095223-36.428484a19.309726 19.309726 0 0 0-2.67298-1.884232 364.576975 364.576975 0 0 0-186.319868-51.078753z m313.819564 549.494624z" fill="" p-id="7988"></path>
<defs>
<linearGradient id="paint0_linear" x1="2.12767" y1="1" x2="30.7018" y2="17.5237" gradientUnits="userSpaceOnUse">
<stop offset="0.259336" stop-color="#FFDB6E"/>
<stop offset="1" stop-color="#FFBC5E"/>
</linearGradient>
<linearGradient id="paint1_linear" x1="1.59976" y1="8.08974e-07" x2="31.8368" y2="17.6727" gradientUnits="userSpaceOnUse">
<stop offset="0.259336" stop-color="#FFDB6E"/>
<stop offset="1" stop-color="#FFBC5E"/>
</linearGradient>
</defs>
</svg>