<svg t="1747278084507" class="icon" viewBox="0 0 1344 1024" version="1.1" xmlns="http://www.w3.org/2000/svg" p-id="10079" width="48" height="48" fill="url(#paint0_linear)"><path d="M1264 192H1024c-61.664 0-63.936-57.504-64-64V96c0-40.256-44.48-96-128-96h-319.008c-93.92 0-128 57.408-128 96v31.808C384.96 130.432 383.456 192 320 192H80A80.096 80.096 0 0 0 0 272v576C0 892.096 35.872 928 80 928h192a16 16 0 0 0 0-32h-192c-26.464 0-48-21.536-48-48V448h256a413.76 413.76 0 0 0-32 160c0 229.376 186.624 416 416 416s416-186.624 416-416c0-56.672-11.488-110.72-32.096-160H1312v400c0 26.464-21.536 48-48 48h-224a16 16 0 0 0 0 32h224c44.128 0 80-35.904 80-80v-576C1344 227.904 1308.128 192 1264 192zM672 992c-211.744 0-384-172.256-384-384S460.256 224 672 224s384 172.256 384 384-172.256 384-384 384z m376-576a15.68 15.68 0 0 0-6.592 1.504C972.16 283.776 832.704 192 672 192s-300.16 91.776-369.408 225.504A15.68 15.68 0 0 0 296 416H32V272C32 245.536 53.536 224 80 224H320c75.776 0 96.608-62.656 96.992-96V96c0-25.728 25.568-64 96-64H832c67.008 0 96 42.368 96 64v32c0 33.216 20.064 96 96 96h240c26.464 0 48 21.536 48 48V416h-264z" fill="" p-id="10080"></path><path d="M304 160a16 16 0 0 0 16-16v-32C320 85.536 298.464 64 272 64h-128C117.536 64 96 85.536 96 112v32a16 16 0 0 0 32 0v-32a16 16 0 0 1 16-16h128a16 16 0 0 1 16 16v32a16 16 0 0 0 16 16zM672 320c-158.816 0-288 129.216-288 288s129.184 288 288 288 288-129.216 288-288-129.184-288-288-288z m0 544c-141.152 0-256-114.848-256-256s114.848-256 256-256 256 114.848 256 256-114.848 256-256 256z" fill="" p-id="10081"></path>
<defs>
<linearGradient id="paint0_linear" x1="2.12767" y1="1" x2="30.7018" y2="17.5237" gradientUnits="userSpaceOnUse">
<stop offset="0.259336" stop-color="#FFDB6E"/>
<stop offset="1" stop-color="#FFBC5E"/>
</linearGradient>
<linearGradient id="paint1_linear" x1="1.59976" y1="8.08974e-07" x2="31.8368" y2="17.6727" gradientUnits="userSpaceOnUse">
<stop offset="0.259336" stop-color="#FFDB6E"/>
<stop offset="1" stop-color="#FFBC5E"/>
</linearGradient>
</defs>
</svg>