<svg width="40" height="40" t="1747276640747" class="icon" viewBox="0 0 1024 1024" version="1.1" xmlns="http://www.w3.org/2000/svg" p-id="5881" fill="url(#paint0_linear)"><path d="M21.333333 629.376a21.333333 21.333333 0 0 1-9.514666-40.405333L85.333333 552.192V467.2l706.986667-375.594667 187.477333 164.053334 43.904 263.552a21.333333 21.333333 0 1 1-42.069333 6.997333l-41.429333-248.448-153.856-134.656L128 492.885333v85.674667L30.890667 627.114667a21.504 21.504 0 0 1-9.557334 2.261333zM21.333333 970.709333a21.333333 21.333333 0 0 1-10.965333-39.637333l213.333333-128a21.333333 21.333333 0 1 1 21.930667 36.565333l-213.333333 128a20.906667 20.906667 0 0 1-10.965334 3.072z" fill="" p-id="5882"></path><path d="M234.666667 266.709333m-42.666667 0a42.666667 42.666667 0 1 0 85.333333 0 42.666667 42.666667 0 1 0-85.333333 0Z" fill="" p-id="5883"></path><path d="M405.333333 181.376m-42.666666 0a42.666667 42.666667 0 1 0 85.333333 0 42.666667 42.666667 0 1 0-85.333333 0Z" fill="" p-id="5884"></path><path d="M576 96.042667m-42.666667 0a42.666667 42.666667 0 1 0 85.333334 0 42.666667 42.666667 0 1 0-85.333334 0Z" fill="" p-id="5885"></path><path d="M533.333333 906.709333m-42.666666 0a42.666667 42.666667 0 1 0 85.333333 0 42.666667 42.666667 0 1 0-85.333333 0Z" fill="" p-id="5886"></path><path d="M704 821.376m-42.666667 0a42.666667 42.666667 0 1 0 85.333334 0 42.666667 42.666667 0 1 0-85.333334 0Z" fill="" p-id="5887"></path><path d="M874.666667 736.042667m-42.666667 0a42.666667 42.666667 0 1 0 85.333333 0 42.666667 42.666667 0 1 0-85.333333 0Z" fill="" p-id="5888"></path><path d="M320 885.376a21.674667 21.674667 0 0 1-9.557333-2.261333l-85.333334-42.666667a21.333333 21.333333 0 0 1-9.557333-9.557333l-128-256a21.333333 21.333333 0 0 1 38.186667-19.072l124.842666 249.642666 69.418667 34.730667 673.109333-336.554667a21.333333 21.333333 0 0 1 19.072 38.186667l-682.666666 341.333333a21.888 21.888 0 0 1-9.514667 2.218667zM277.333333 394.709333a21.333333 21.333333 0 0 1-19.797333-13.397333l-42.666667-106.666667a21.290667 21.290667 0 1 1 39.594667-15.872l42.666667 106.666667a21.333333 21.333333 0 0 1-19.797334 29.269333zM448 309.376a21.333333 21.333333 0 0 1-19.797333-13.397333l-42.666667-106.666667a21.376 21.376 0 0 1 11.904-27.776 21.248 21.248 0 0 1 27.690667 11.904l42.666666 106.666667a21.333333 21.333333 0 0 1-19.797333 29.269333zM618.666667 224.042667a21.333333 21.333333 0 0 1-19.797334-13.397334l-42.666666-106.666666a21.333333 21.333333 0 1 1 39.552-15.829334l42.666666 106.666667a21.333333 21.333333 0 0 1-19.754666 29.226667z" fill="" p-id="5889"></path><path d="M533.333333 928.042667a21.333333 21.333333 0 0 1-18.304-10.368l-64-106.666667a21.376 21.376 0 0 1 36.608-21.973333l64 106.666666a21.333333 21.333333 0 0 1-18.304 32.341334zM704 842.709333a21.333333 21.333333 0 0 1-18.304-10.368l-64-106.666666a21.376 21.376 0 0 1 36.608-21.973334l64 106.666667a21.333333 21.333333 0 0 1-18.304 32.341333zM874.666667 757.376a21.333333 21.333333 0 0 1-18.304-10.368l-64-106.666667a21.333333 21.333333 0 0 1 7.338666-29.269333 21.461333 21.461333 0 0 1 29.269334 7.296l64 106.666667a21.333333 21.333333 0 0 1-18.304 32.341333zM490.666667 416.042667c-5.546667 0-11.093333-2.133333-14.976-5.973334a21.76 21.76 0 0 1-0.384-30.293333c8.533333-8.106667 22.613333-8.106667 30.293333 0 4.309333 4.266667 6.4 9.813333 6.4 14.933333 0 5.546667-2.133333 10.666667-6.016 14.933334a21.504 21.504 0 0 1-15.317333 6.4z" fill="" p-id="5890"></path><path d="M320 501.376c-5.546667 0-11.093333-2.133333-14.976-6.4a20.138667 20.138667 0 0 1-6.357333-14.933333c0-5.546667 2.133333-11.093333 6.357333-14.933334 8.106667-8.106667 22.229333-8.106667 30.293333 0a21.12 21.12 0 0 1-0.384 29.866667 20.053333 20.053333 0 0 1-14.933333 6.4z" fill="" p-id="5891"></path><path d="M661.333333 330.709333c-5.546667 0-11.093333-2.133333-14.976-5.973333a21.76 21.76 0 0 1-0.384-30.293333c8.96-8.533333 22.613333-8.106667 30.293334 0a21.162667 21.162667 0 0 1-14.933334 36.266666z" fill="" p-id="5892"></path><path d="M618.666667 629.376c-5.546667 0-11.093333-2.133333-14.976-5.973333a21.589333 21.589333 0 0 1-0.384-30.293334c8.96-8.533333 22.613333-8.106667 30.293333 0 4.309333 3.84 6.4 9.386667 6.4 14.933334 0 5.546667-2.133333 10.666667-6.016 14.933333a21.504 21.504 0 0 1-15.317333 6.4z" fill="" p-id="5893"></path><path d="M448 714.709333c-5.546667 0-11.093333-2.133333-14.976-5.973333a21.589333 21.589333 0 0 1-0.384-30.293333c8.96-8.533333 22.613333-8.106667 30.293333-0.426667 4.309333 4.693333 6.4 9.813333 6.4 15.36a21.162667 21.162667 0 0 1-21.333333 21.333333z" fill="" p-id="5894"></path><path d="M789.333333 544.042667c-5.546667 0-11.093333-2.133333-14.976-6.4a19.328 19.328 0 0 1-6.357333-14.933334 21.376 21.376 0 0 1 42.624 0 21.333333 21.333333 0 0 1-21.290667 21.333334z" fill="" p-id="5895"></path>
<defs>
<linearGradient id="paint0_linear" x1="2.12767" y1="1" x2="30.7018" y2="17.5237" gradientUnits="userSpaceOnUse">
<stop offset="0.259336" stop-color="#FFDB6E"/>
<stop offset="1" stop-color="#FFBC5E"/>
</linearGradient>
<linearGradient id="paint1_linear" x1="1.59976" y1="8.08974e-07" x2="31.8368" y2="17.6727" gradientUnits="userSpaceOnUse">
<stop offset="0.259336" stop-color="#FFDB6E"/>
<stop offset="1" stop-color="#FFBC5E"/>
</linearGradient>
</defs>
</svg>